# xmcd CD database file
#
# Track frame offsets:
#	150
#	24183
#	58113
#	91525
#	119575
#	164045
#
# Disc length: 2609 seconds
#
# Revision: 0
# Processed by: cddbd v1.5.2PL0 Copyright (c) Steve Scherf et al.
# Submitted via: CDex 1.70beta2
#
DISCID=450a2f06
DTITLE=The Savoy Recordings - Charles Mingus and Booker Ervin - Part 1
DYEAR=1900
DGENRE=Jazz
TTITLE0=Mr. Wiggles
TTITLE1=Dee Da Do
TTITLE2=You Don't Know What Love Is
TTITLE3=Down In The Dumps
TTITLE4=Well. Well
TTITLE5=Autumn Leaves
EXTD=
EXTT0=
EXTT1=
EXTT2=
EXTT3=
EXTT4=
EXTT5=
PLAYORDER=
